SplineFontDB: 3.2
FontName: MyCustomFont
FullName: My Custom Font
FamilyName: CustomFamily
Weight: Regular
Copyright: Copyright (c) 2024, 
UComments: "2024-8-16: Created with FontForge (http://fontforge.org)"
Version: 001.000
ItalicAngle: 0
UnderlinePosition: -100
UnderlineWidth: 50
Ascent: 800
Descent: 200
InvalidEm: 0
LayerCount: 2
Layer: 0 0 "Back" 1
Layer: 1 0 "Fore" 0
XUID: [1021 506 879549776 9736290]
OS2Version: 0
OS2_WeightWidthSlopeOnly: 0
OS2_UseTypoMetrics: 1
CreationTime: 1723799358
ModificationTime: 1723799359
OS2TypoAscent: 0
OS2TypoAOffset: 1
OS2TypoDescent: 0
OS2TypoDOffset: 1
OS2TypoLinegap: 0
OS2WinAscent: 0
OS2WinAOffset: 1
OS2WinDescent: 0
OS2WinDOffset: 1
HheadAscent: 0
HheadAOffset: 1
HheadDescent: 0
HheadDOffset: 1
OS2Vendor: 'PfEd'
DEI: 91125
Encoding: ISO8859-1
UnicodeInterp: none
NameList: AGL For New Fonts
DisplaySize: -48
AntiAlias: 1
FitToEm: 0
BeginChars: 256 36

StartChar: a
Encoding: 97 97 0
Width: 1111
VWidth: 1111
Flags: H
LayerCount: 2
Back
Fore
SplineSet
277.77734375 633.333984375 m 1
 277.77734375 688.888671875 l 1
 500 688.888671875 l 1
 722.22265625 688.888671875 l 1
 722.22265625 633.333984375 l 1
 722.22265625 577.778320312 l 1
 777.77734375 577.778320312 l 1
 833.333984375 577.778320312 l 1
 833.333984375 244.444335938 l 1
 833.333984375 -88.888671875 l 1
 555.5546875 -88.888671875 l 1
 277.77734375 -88.888671875 l 1
 277.77734375 -33.3330078125 l 1
 277.77734375 22.22265625 l 1
 222.22265625 22.22265625 l 1
 166.666015625 22.22265625 l 1
 166.666015625 133.333984375 l 1
 166.666015625 244.444335938 l 1
 222.22265625 244.444335938 l 1
 277.77734375 244.444335938 l 1
 277.77734375 300 l 1
 277.77734375 355.555664062 l 1
 500 355.555664062 l 1
 722.22265625 355.555664062 l 1
 722.22265625 466.666992188 l 1
 722.22265625 577.778320312 l 1
 500 577.778320312 l 1
 277.77734375 577.778320312 l 1
 277.77734375 633.333984375 l 1
722.22265625 133.333984375 m 1
 722.22265625 244.444335938 l 1
 500 244.444335938 l 1
 277.77734375 244.444335938 l 1
 277.77734375 133.333984375 l 1
 277.77734375 22.22265625 l 1
 500 22.22265625 l 1
 722.22265625 22.22265625 l 1
 722.22265625 133.333984375 l 1
EndSplineSet
EndChar

StartChar: A
Encoding: 65 65 1
Width: 1111
Flags: H
LayerCount: 2
Back
Fore
SplineSet
277.77734375 744.444335938 m 1
 277.77734375 800 l 1
 500 800 l 1
 722.22265625 800 l 1
 722.22265625 744.444335938 l 1
 722.22265625 688.888671875 l 1
 777.77734375 688.888671875 l 1
 833.333984375 688.888671875 l 1
 833.333984375 244.444335938 l 1
 833.333984375 -200 l 1
 777.77734375 -200 l 1
 722.22265625 -200 l 1
 722.22265625 -33.3330078125 l 1
 722.22265625 133.333007812 l 1
 500 133.333007812 l 1
 277.77734375 133.333007812 l 1
 277.77734375 -33.3330078125 l 1
 277.77734375 -200 l 1
 222.22265625 -200 l 1
 166.666015625 -200 l 1
 166.666015625 244.444335938 l 1
 166.666015625 688.888671875 l 1
 222.22265625 688.888671875 l 1
 277.77734375 688.888671875 l 1
 277.77734375 744.444335938 l 1
611.111328125 633.333007812 m 1
 611.111328125 688.888671875 l 1
 500 688.888671875 l 1
 388.888671875 688.888671875 l 1
 388.888671875 633.333007812 l 1
 388.888671875 577.77734375 l 1
 333.333984375 577.77734375 l 1
 277.77734375 577.77734375 l 1
 277.77734375 411.111328125 l 1
 277.77734375 244.444335938 l 1
 500 244.444335938 l 1
 722.22265625 244.444335938 l 1
 722.22265625 411.111328125 l 1
 722.22265625 577.77734375 l 1
 666.666015625 577.77734375 l 1
 611.111328125 577.77734375 l 1
 611.111328125 633.333007812 l 1
EndSplineSet
EndChar

StartChar: B
Encoding: 66 66 2
Width: 1111
Flags: H
LayerCount: 2
Back
Fore
SplineSet
166.666015625 300 m 1
 166.666015625 800 l 1
 444.443359375 800 l 1
 722.22265625 800 l 1
 722.22265625 744.444335938 l 1
 722.22265625 688.888671875 l 1
 777.77734375 688.888671875 l 1
 833.333984375 688.888671875 l 1
 833.333984375 522.22265625 l 1
 833.333984375 355.555664062 l 1
 777.77734375 355.555664062 l 1
 722.22265625 355.555664062 l 1
 722.22265625 300 l 1
 722.22265625 244.444335938 l 1
 777.77734375 244.444335938 l 1
 833.333984375 244.444335938 l 1
 833.333984375 77.77734375 l 1
 833.333984375 -88.888671875 l 1
 777.77734375 -88.888671875 l 1
 722.22265625 -88.888671875 l 1
 722.22265625 -144.444335938 l 1
 722.22265625 -200 l 1
 444.443359375 -200 l 1
 166.666015625 -200 l 1
 166.666015625 300 l 1
611.111328125 633.333007812 m 1
 611.111328125 688.888671875 l 1
 444.443359375 688.888671875 l 1
 277.77734375 688.888671875 l 1
 277.77734375 522.22265625 l 1
 277.77734375 355.555664062 l 1
 444.443359375 355.555664062 l 1
 611.111328125 355.555664062 l 1
 611.111328125 411.111328125 l 1
 611.111328125 466.666992188 l 1
 666.666015625 466.666992188 l 1
 722.22265625 466.666992188 l 1
 722.22265625 522.22265625 l 1
 722.22265625 577.77734375 l 1
 666.666015625 577.77734375 l 1
 611.111328125 577.77734375 l 1
 611.111328125 633.333007812 l 1
611.111328125 188.888671875 m 1
 611.111328125 244.444335938 l 1
 444.443359375 244.444335938 l 1
 277.77734375 244.444335938 l 1
 277.77734375 77.77734375 l 1
 277.77734375 -88.888671875 l 1
 444.443359375 -88.888671875 l 1
 611.111328125 -88.888671875 l 1
 611.111328125 -33.3330078125 l 1
 611.111328125 22.22265625 l 1
 666.666015625 22.22265625 l 1
 722.22265625 22.22265625 l 1
 722.22265625 77.77734375 l 1
 722.22265625 133.333007812 l 1
 666.666015625 133.333007812 l 1
 611.111328125 133.333007812 l 1
 611.111328125 188.888671875 l 1
EndSplineSet
EndChar

StartChar: C
Encoding: 67 67 3
Width: 1111
Flags: H
LayerCount: 2
Back
Fore
SplineSet
277.77734375 744.444335938 m 1
 277.77734375 800 l 1
 500 800 l 1
 722.22265625 800 l 1
 722.22265625 744.444335938 l 1
 722.22265625 688.888671875 l 1
 777.77734375 688.888671875 l 1
 833.333984375 688.888671875 l 1
 833.333984375 577.77734375 l 1
 833.333984375 466.666992188 l 1
 777.77734375 466.666992188 l 1
 722.22265625 466.666992188 l 1
 722.22265625 522.22265625 l 1
 722.22265625 577.77734375 l 1
 666.666015625 577.77734375 l 1
 611.111328125 577.77734375 l 1
 611.111328125 633.333007812 l 1
 611.111328125 688.888671875 l 1
 500 688.888671875 l 1
 388.888671875 688.888671875 l 1
 388.888671875 633.333007812 l 1
 388.888671875 577.77734375 l 1
 333.333984375 577.77734375 l 1
 277.77734375 577.77734375 l 1
 277.77734375 300 l 1
 277.77734375 22.22265625 l 1
 333.333984375 22.22265625 l 1
 388.888671875 22.22265625 l 1
 388.888671875 -33.3330078125 l 1
 388.888671875 -88.888671875 l 1
 500 -88.888671875 l 1
 611.111328125 -88.888671875 l 1
 611.111328125 -33.3330078125 l 1
 611.111328125 22.22265625 l 1
 666.666015625 22.22265625 l 1
 722.22265625 22.22265625 l 1
 722.22265625 77.77734375 l 1
 722.22265625 133.333007812 l 1
 777.77734375 133.333007812 l 1
 833.333984375 133.333007812 l 1
 833.333984375 22.22265625 l 1
 833.333984375 -88.888671875 l 1
 777.77734375 -88.888671875 l 1
 722.22265625 -88.888671875 l 1
 722.22265625 -144.444335938 l 1
 722.22265625 -200 l 1
 500 -200 l 1
 277.77734375 -200 l 1
 277.77734375 -144.444335938 l 1
 277.77734375 -88.888671875 l 1
 222.22265625 -88.888671875 l 1
 166.666015625 -88.888671875 l 1
 166.666015625 300 l 1
 166.666015625 688.888671875 l 1
 222.22265625 688.888671875 l 1
 277.77734375 688.888671875 l 1
 277.77734375 744.444335938 l 1
EndSplineSet
EndChar

StartChar: D
Encoding: 68 68 4
Width: 1111
Flags: H
LayerCount: 2
Back
Fore
SplineSet
166.666015625 300 m 1
 166.666015625 800 l 1
 444.443359375 800 l 1
 722.22265625 800 l 1
 722.22265625 744.444335938 l 1
 722.22265625 688.888671875 l 1
 777.77734375 688.888671875 l 1
 833.333984375 688.888671875 l 1
 833.333984375 300 l 1
 833.333984375 -88.888671875 l 1
 777.77734375 -88.888671875 l 1
 722.22265625 -88.888671875 l 1
 722.22265625 -144.444335938 l 1
 722.22265625 -200 l 1
 444.443359375 -200 l 1
 166.666015625 -200 l 1
 166.666015625 300 l 1
611.111328125 633.333007812 m 1
 611.111328125 688.888671875 l 1
 444.443359375 688.888671875 l 1
 277.77734375 688.888671875 l 1
 277.77734375 300 l 1
 277.77734375 -88.888671875 l 1
 444.443359375 -88.888671875 l 1
 611.111328125 -88.888671875 l 1
 611.111328125 -33.3330078125 l 1
 611.111328125 22.22265625 l 1
 666.666015625 22.22265625 l 1
 722.22265625 22.22265625 l 1
 722.22265625 300 l 1
 722.22265625 577.77734375 l 1
 666.666015625 577.77734375 l 1
 611.111328125 577.77734375 l 1
 611.111328125 633.333007812 l 1
EndSplineSet
EndChar

StartChar: E
Encoding: 69 69 5
Width: 1111
Flags: H
LayerCount: 2
Back
Fore
SplineSet
166.666015625 300 m 1
 166.666015625 800 l 1
 500 800 l 1
 833.333984375 800 l 1
 833.333984375 744.444335938 l 1
 833.333984375 688.888671875 l 1
 555.5546875 688.888671875 l 1
 277.77734375 688.888671875 l 1
 277.77734375 522.22265625 l 1
 277.77734375 355.555664062 l 1
 444.443359375 355.555664062 l 1
 611.111328125 355.555664062 l 1
 611.111328125 300 l 1
 611.111328125 244.444335938 l 1
 444.443359375 244.444335938 l 1
 277.77734375 244.444335938 l 1
 277.77734375 77.77734375 l 1
 277.77734375 -88.888671875 l 1
 555.5546875 -88.888671875 l 1
 833.333984375 -88.888671875 l 1
 833.333984375 -144.444335938 l 1
 833.333984375 -200 l 1
 500 -200 l 1
 166.666015625 -200 l 1
 166.666015625 300 l 1
EndSplineSet
EndChar

StartChar: F
Encoding: 70 70 6
Width: 1111
Flags: H
LayerCount: 2
Back
Fore
SplineSet
166.666015625 300 m 1
 166.666015625 800 l 1
 500 800 l 1
 833.333984375 800 l 1
 833.333984375 744.444335938 l 1
 833.333984375 688.888671875 l 1
 555.5546875 688.888671875 l 1
 277.77734375 688.888671875 l 1
 277.77734375 522.22265625 l 1
 277.77734375 355.555664062 l 1
 444.443359375 355.555664062 l 1
 611.111328125 355.555664062 l 1
 611.111328125 300 l 1
 611.111328125 244.444335938 l 1
 444.443359375 244.444335938 l 1
 277.77734375 244.444335938 l 1
 277.77734375 22.22265625 l 1
 277.77734375 -200 l 1
 222.22265625 -200 l 1
 166.666015625 -200 l 1
 166.666015625 300 l 1
EndSplineSet
EndChar

StartChar: G
Encoding: 71 71 7
Width: 1111
Flags: H
LayerCount: 2
Back
Fore
SplineSet
277.77734375 744.444335938 m 1
 277.77734375 800 l 1
 500 800 l 1
 722.22265625 800 l 1
 722.22265625 744.444335938 l 1
 722.22265625 688.888671875 l 1
 777.77734375 688.888671875 l 1
 833.333984375 688.888671875 l 1
 833.333984375 633.333007812 l 1
 833.333984375 577.77734375 l 1
 722.22265625 577.77734375 l 1
 611.111328125 577.77734375 l 1
 611.111328125 633.333007812 l 1
 611.111328125 688.888671875 l 1
 500 688.888671875 l 1
 388.888671875 688.888671875 l 1
 388.888671875 633.333007812 l 1
 388.888671875 577.77734375 l 1
 333.333984375 577.77734375 l 1
 277.77734375 577.77734375 l 1
 277.77734375 300 l 1
 277.77734375 22.22265625 l 1
 333.333984375 22.22265625 l 1
 388.888671875 22.22265625 l 1
 388.888671875 -33.3330078125 l 1
 388.888671875 -88.888671875 l 1
 555.5546875 -88.888671875 l 1
 722.22265625 -88.888671875 l 1
 722.22265625 77.77734375 l 1
 722.22265625 244.444335938 l 1
 611.111328125 244.444335938 l 1
 500 244.444335938 l 1
 500 300 l 1
 500 355.555664062 l 1
 666.666015625 355.555664062 l 1
 833.333984375 355.555664062 l 1
 833.333984375 77.77734375 l 1
 833.333984375 -200 l 1
 555.5546875 -200 l 1
 277.77734375 -200 l 1
 277.77734375 -144.444335938 l 1
 277.77734375 -88.888671875 l 1
 222.22265625 -88.888671875 l 1
 166.666015625 -88.888671875 l 1
 166.666015625 300 l 1
 166.666015625 688.888671875 l 1
 222.22265625 688.888671875 l 1
 277.77734375 688.888671875 l 1
 277.77734375 744.444335938 l 1
EndSplineSet
EndChar

StartChar: H
Encoding: 72 72 8
Width: 1111
Flags: H
LayerCount: 2
Back
Fore
SplineSet
166.666015625 300 m 1
 166.666015625 800 l 1
 222.22265625 800 l 1
 277.77734375 800 l 1
 277.77734375 577.77734375 l 1
 277.77734375 355.555664062 l 1
 500 355.555664062 l 1
 722.22265625 355.555664062 l 1
 722.22265625 577.77734375 l 1
 722.22265625 800 l 1
 777.77734375 800 l 1
 833.333984375 800 l 1
 833.333984375 300 l 1
 833.333984375 -200 l 1
 777.77734375 -200 l 1
 722.22265625 -200 l 1
 722.22265625 22.22265625 l 1
 722.22265625 244.444335938 l 1
 500 244.444335938 l 1
 277.77734375 244.444335938 l 1
 277.77734375 22.22265625 l 1
 277.77734375 -200 l 1
 222.22265625 -200 l 1
 166.666015625 -200 l 1
 166.666015625 300 l 1
EndSplineSet
EndChar

StartChar: I
Encoding: 73 73 9
Width: 1111
Flags: H
LayerCount: 2
Back
Fore
SplineSet
222.22265625 744.444335938 m 1
 222.22265625 800 l 1
 500 800 l 1
 777.77734375 800 l 1
 777.77734375 744.444335938 l 1
 777.77734375 688.888671875 l 1
 666.666015625 688.888671875 l 1
 555.5546875 688.888671875 l 1
 555.5546875 300 l 1
 555.5546875 -88.888671875 l 1
 666.666015625 -88.888671875 l 1
 777.77734375 -88.888671875 l 1
 777.77734375 -144.444335938 l 1
 777.77734375 -200 l 1
 500 -200 l 1
 222.22265625 -200 l 1
 222.22265625 -144.444335938 l 1
 222.22265625 -88.888671875 l 1
 333.333984375 -88.888671875 l 1
 444.443359375 -88.888671875 l 1
 444.443359375 300 l 1
 444.443359375 688.888671875 l 1
 333.333984375 688.888671875 l 1
 222.22265625 688.888671875 l 1
 222.22265625 744.444335938 l 1
EndSplineSet
EndChar

StartChar: K
Encoding: 75 75 10
Width: 1111
Flags: H
LayerCount: 2
Back
Fore
SplineSet
166.666015625 300 m 1
 166.666015625 800 l 1
 222.22265625 800 l 1
 277.77734375 800 l 1
 277.77734375 577.77734375 l 1
 277.77734375 355.555664062 l 1
 333.333984375 355.555664062 l 1
 388.888671875 355.555664062 l 1
 388.888671875 411.111328125 l 1
 388.888671875 466.666992188 l 1
 444.443359375 466.666992188 l 1
 500 466.666992188 l 1
 500 522.22265625 l 1
 500 577.77734375 l 1
 555.5546875 577.77734375 l 1
 611.111328125 577.77734375 l 1
 611.111328125 633.333007812 l 1
 611.111328125 688.888671875 l 1
 666.666015625 688.888671875 l 1
 722.22265625 688.888671875 l 1
 722.22265625 744.444335938 l 1
 722.22265625 800 l 1
 777.77734375 800 l 1
 833.333984375 800 l 1
 833.333984375 688.888671875 l 1
 833.333984375 577.77734375 l 1
 777.77734375 577.77734375 l 1
 722.22265625 577.77734375 l 1
 722.22265625 522.22265625 l 1
 722.22265625 466.666992188 l 1
 666.666015625 466.666992188 l 1
 611.111328125 466.666992188 l 1
 611.111328125 411.111328125 l 1
 611.111328125 355.555664062 l 1
 555.5546875 355.555664062 l 1
 500 355.555664062 l 1
 500 300 l 1
 500 244.444335938 l 1
 555.5546875 244.444335938 l 1
 611.111328125 244.444335938 l 1
 611.111328125 188.888671875 l 1
 611.111328125 133.333007812 l 1
 666.666015625 133.333007812 l 1
 722.22265625 133.333007812 l 1
 722.22265625 77.77734375 l 1
 722.22265625 22.22265625 l 1
 777.77734375 22.22265625 l 1
 833.333984375 22.22265625 l 1
 833.333984375 -88.888671875 l 1
 833.333984375 -200 l 1
 777.77734375 -200 l 1
 722.22265625 -200 l 1
 722.22265625 -144.444335938 l 1
 722.22265625 -88.888671875 l 1
 666.666015625 -88.888671875 l 1
 611.111328125 -88.888671875 l 1
 611.111328125 -33.3330078125 l 1
 611.111328125 22.22265625 l 1
 555.5546875 22.22265625 l 1
 500 22.22265625 l 1
 500 77.77734375 l 1
 500 133.333007812 l 1
 444.443359375 133.333007812 l 1
 388.888671875 133.333007812 l 1
 388.888671875 188.888671875 l 1
 388.888671875 244.444335938 l 1
 333.333984375 244.444335938 l 1
 277.77734375 244.444335938 l 1
 277.77734375 22.22265625 l 1
 277.77734375 -200 l 1
 222.22265625 -200 l 1
 166.666015625 -200 l 1
 166.666015625 300 l 1
EndSplineSet
EndChar

StartChar: L
Encoding: 76 76 11
Width: 1111
Flags: H
LayerCount: 2
Back
Fore
SplineSet
166.666015625 300 m 1
 166.666015625 800 l 1
 222.22265625 800 l 1
 277.77734375 800 l 1
 277.77734375 355.555664062 l 1
 277.77734375 -88.888671875 l 1
 555.5546875 -88.888671875 l 1
 833.333984375 -88.888671875 l 1
 833.333984375 -144.444335938 l 1
 833.333984375 -200 l 1
 500 -200 l 1
 166.666015625 -200 l 1
 166.666015625 300 l 1
EndSplineSet
EndChar

StartChar: M
Encoding: 77 77 12
Width: 1111
Flags: H
LayerCount: 2
Back
Fore
SplineSet
166.666015625 300 m 1
 166.666015625 800 l 1
 222.22265625 800 l 1
 277.77734375 800 l 1
 277.77734375 744.444335938 l 1
 277.77734375 688.888671875 l 1
 333.333984375 688.888671875 l 1
 388.888671875 688.888671875 l 1
 388.888671875 577.77734375 l 1
 388.888671875 466.666992188 l 1
 500 466.666992188 l 1
 611.111328125 466.666992188 l 1
 611.111328125 577.77734375 l 1
 611.111328125 688.888671875 l 1
 666.666015625 688.888671875 l 1
 722.22265625 688.888671875 l 1
 722.22265625 744.444335938 l 1
 722.22265625 800 l 1
 777.77734375 800 l 1
 833.333984375 800 l 1
 833.333984375 300 l 1
 833.333984375 -200 l 1
 777.77734375 -200 l 1
 722.22265625 -200 l 1
 722.22265625 133.333007812 l 1
 722.22265625 466.666992188 l 1
 666.666015625 466.666992188 l 1
 611.111328125 466.666992188 l 1
 611.111328125 355.555664062 l 1
 611.111328125 244.444335938 l 1
 500 244.444335938 l 1
 388.888671875 244.444335938 l 1
 388.888671875 355.555664062 l 1
 388.888671875 466.666992188 l 1
 333.333984375 466.666992188 l 1
 277.77734375 466.666992188 l 1
 277.77734375 133.333007812 l 1
 277.77734375 -200 l 1
 222.22265625 -200 l 1
 166.666015625 -200 l 1
 166.666015625 300 l 1
EndSplineSet
EndChar

StartChar: N
Encoding: 78 78 13
Width: 1111
Flags: H
LayerCount: 2
Back
Fore
SplineSet
166.666015625 300 m 1
 166.666015625 800 l 1
 222.22265625 800 l 1
 277.77734375 800 l 1
 277.77734375 744.444335938 l 1
 277.77734375 688.888671875 l 1
 333.333984375 688.888671875 l 1
 388.888671875 688.888671875 l 1
 388.888671875 577.77734375 l 1
 388.888671875 466.666992188 l 1
 444.443359375 466.666992188 l 1
 500 466.666992188 l 1
 500 355.555664062 l 1
 500 244.444335938 l 1
 555.5546875 244.444335938 l 1
 611.111328125 244.444335938 l 1
 611.111328125 133.333007812 l 1
 611.111328125 22.22265625 l 1
 666.666015625 22.22265625 l 1
 722.22265625 22.22265625 l 1
 722.22265625 411.111328125 l 1
 722.22265625 800 l 1
 777.77734375 800 l 1
 833.333984375 800 l 1
 833.333984375 300 l 1
 833.333984375 -200 l 1
 722.22265625 -200 l 1
 611.111328125 -200 l 1
 611.111328125 -88.888671875 l 1
 611.111328125 22.22265625 l 1
 555.5546875 22.22265625 l 1
 500 22.22265625 l 1
 500 133.333007812 l 1
 500 244.444335938 l 1
 444.443359375 244.444335938 l 1
 388.888671875 244.444335938 l 1
 388.888671875 355.555664062 l 1
 388.888671875 466.666992188 l 1
 333.333984375 466.666992188 l 1
 277.77734375 466.666992188 l 1
 277.77734375 133.333007812 l 1
 277.77734375 -200 l 1
 222.22265625 -200 l 1
 166.666015625 -200 l 1
 166.666015625 300 l 1
EndSplineSet
EndChar

StartChar: O
Encoding: 79 79 14
Width: 1111
Flags: H
LayerCount: 2
Back
Fore
SplineSet
277.77734375 744.444335938 m 1
 277.77734375 800 l 1
 500 800 l 1
 722.22265625 800 l 1
 722.22265625 744.444335938 l 1
 722.22265625 688.888671875 l 1
 777.77734375 688.888671875 l 1
 833.333984375 688.888671875 l 1
 833.333984375 300 l 1
 833.333984375 -88.888671875 l 1
 777.77734375 -88.888671875 l 1
 722.22265625 -88.888671875 l 1
 722.22265625 -144.444335938 l 1
 722.22265625 -200 l 1
 500 -200 l 1
 277.77734375 -200 l 1
 277.77734375 -144.444335938 l 1
 277.77734375 -88.888671875 l 1
 222.22265625 -88.888671875 l 1
 166.666015625 -88.888671875 l 1
 166.666015625 300 l 1
 166.666015625 688.888671875 l 1
 222.22265625 688.888671875 l 1
 277.77734375 688.888671875 l 1
 277.77734375 744.444335938 l 1
611.111328125 633.333007812 m 1
 611.111328125 688.888671875 l 1
 500 688.888671875 l 1
 388.888671875 688.888671875 l 1
 388.888671875 633.333007812 l 1
 388.888671875 577.77734375 l 1
 333.333984375 577.77734375 l 1
 277.77734375 577.77734375 l 1
 277.77734375 300 l 1
 277.77734375 22.22265625 l 1
 333.333984375 22.22265625 l 1
 388.888671875 22.22265625 l 1
 388.888671875 -33.3330078125 l 1
 388.888671875 -88.888671875 l 1
 500 -88.888671875 l 1
 611.111328125 -88.888671875 l 1
 611.111328125 -33.3330078125 l 1
 611.111328125 22.22265625 l 1
 666.666015625 22.22265625 l 1
 722.22265625 22.22265625 l 1
 722.22265625 300 l 1
 722.22265625 577.77734375 l 1
 666.666015625 577.77734375 l 1
 611.111328125 577.77734375 l 1
 611.111328125 633.333007812 l 1
EndSplineSet
EndChar

StartChar: P
Encoding: 80 80 15
Width: 1111
Flags: H
LayerCount: 2
Back
Fore
SplineSet
166.666015625 300 m 1
 166.666015625 800 l 1
 444.443359375 800 l 1
 722.22265625 800 l 1
 722.22265625 744.444335938 l 1
 722.22265625 688.888671875 l 1
 777.77734375 688.888671875 l 1
 833.333984375 688.888671875 l 1
 833.333984375 522.22265625 l 1
 833.333984375 355.555664062 l 1
 777.77734375 355.555664062 l 1
 722.22265625 355.555664062 l 1
 722.22265625 300 l 1
 722.22265625 244.444335938 l 1
 500 244.444335938 l 1
 277.77734375 244.444335938 l 1
 277.77734375 22.22265625 l 1
 277.77734375 -200 l 1
 222.22265625 -200 l 1
 166.666015625 -200 l 1
 166.666015625 300 l 1
611.111328125 633.333007812 m 1
 611.111328125 688.888671875 l 1
 444.443359375 688.888671875 l 1
 277.77734375 688.888671875 l 1
 277.77734375 522.22265625 l 1
 277.77734375 355.555664062 l 1
 444.443359375 355.555664062 l 1
 611.111328125 355.555664062 l 1
 611.111328125 411.111328125 l 1
 611.111328125 466.666992188 l 1
 666.666015625 466.666992188 l 1
 722.22265625 466.666992188 l 1
 722.22265625 522.22265625 l 1
 722.22265625 577.77734375 l 1
 666.666015625 577.77734375 l 1
 611.111328125 577.77734375 l 1
 611.111328125 633.333007812 l 1
EndSplineSet
EndChar

StartChar: Q
Encoding: 81 81 16
Width: 1111
Flags: H
LayerCount: 2
Back
Fore
SplineSet
388.888671875 188.888671875 m 1
 388.888671875 244.444335938 l 1
 444.443359375 244.444335938 l 1
 500 244.444335938 l 1
 500 188.888671875 l 1
 500 133.333007812 l 1
 555.5546875 133.333007812 l 1
 611.111328125 133.333007812 l 1
 611.111328125 77.77734375 l 1
 611.111328125 22.22265625 l 1
 555.5546875 22.22265625 l 1
 500 22.22265625 l 1
 500 77.77734375 l 1
 500 133.333007812 l 1
 444.443359375 133.333007812 l 1
 388.888671875 133.333007812 l 1
 388.888671875 188.888671875 l 1
277.77734375 744.444335938 m 1
 277.77734375 800 l 1
 500 800 l 1
 722.22265625 800 l 1
 722.22265625 744.444335938 l 1
 722.22265625 688.888671875 l 1
 777.77734375 688.888671875 l 1
 833.333984375 688.888671875 l 1
 833.333984375 355.555664062 l 1
 833.333984375 22.22265625 l 1
 777.77734375 22.22265625 l 1
 722.22265625 22.22265625 l 1
 722.22265625 -33.3330078125 l 1
 722.22265625 -88.888671875 l 1
 777.77734375 -88.888671875 l 1
 833.333984375 -88.888671875 l 1
 833.333984375 -144.444335938 l 1
 833.333984375 -200 l 1
 777.77734375 -200 l 1
 722.22265625 -200 l 1
 722.22265625 -144.444335938 l 1
 722.22265625 -88.888671875 l 1
 666.666015625 -88.888671875 l 1
 611.111328125 -88.888671875 l 1
 611.111328125 -144.444335938 l 1
 611.111328125 -200 l 1
 444.443359375 -200 l 1
 277.77734375 -200 l 1
 277.77734375 -144.444335938 l 1
 277.77734375 -88.888671875 l 1
 222.22265625 -88.888671875 l 1
 166.666015625 -88.888671875 l 1
 166.666015625 300 l 1
 166.666015625 688.888671875 l 1
 222.22265625 688.888671875 l 1
 277.77734375 688.888671875 l 1
 277.77734375 744.444335938 l 1
611.111328125 633.333007812 m 1
 611.111328125 688.888671875 l 1
 500 688.888671875 l 1
 388.888671875 688.888671875 l 1
 388.888671875 633.333007812 l 1
 388.888671875 577.77734375 l 1
 333.333984375 577.77734375 l 1
 277.77734375 577.77734375 l 1
 277.77734375 300 l 1
 277.77734375 22.22265625 l 1
 333.333984375 22.22265625 l 1
 388.888671875 22.22265625 l 1
 388.888671875 -33.3330078125 l 1
 388.888671875 -88.888671875 l 1
 500 -88.888671875 l 1
 611.111328125 -88.888671875 l 1
 611.111328125 -33.3330078125 l 1
 611.111328125 22.22265625 l 1
 666.666015625 22.22265625 l 1
 722.22265625 22.22265625 l 1
 722.22265625 300 l 1
 722.22265625 577.77734375 l 1
 666.666015625 577.77734375 l 1
 611.111328125 577.77734375 l 1
 611.111328125 633.333007812 l 1
EndSplineSet
EndChar

StartChar: R
Encoding: 82 82 17
Width: 1111
Flags: H
LayerCount: 2
Back
Fore
SplineSet
166.666015625 300 m 1
 166.666015625 800 l 1
 444.443359375 800 l 1
 722.22265625 800 l 1
 722.22265625 744.444335938 l 1
 722.22265625 688.888671875 l 1
 777.77734375 688.888671875 l 1
 833.333984375 688.888671875 l 1
 833.333984375 522.22265625 l 1
 833.333984375 355.555664062 l 1
 777.77734375 355.555664062 l 1
 722.22265625 355.555664062 l 1
 722.22265625 300 l 1
 722.22265625 244.444335938 l 1
 611.111328125 244.444335938 l 1
 500 244.444335938 l 1
 500 188.888671875 l 1
 500 133.333007812 l 1
 555.5546875 133.333007812 l 1
 611.111328125 133.333007812 l 1
 611.111328125 77.77734375 l 1
 611.111328125 22.22265625 l 1
 666.666015625 22.22265625 l 1
 722.22265625 22.22265625 l 1
 722.22265625 -33.3330078125 l 1
 722.22265625 -88.888671875 l 1
 777.77734375 -88.888671875 l 1
 833.333984375 -88.888671875 l 1
 833.333984375 -144.444335938 l 1
 833.333984375 -200 l 1
 722.22265625 -200 l 1
 611.111328125 -200 l 1
 611.111328125 -144.444335938 l 1
 611.111328125 -88.888671875 l 1
 555.5546875 -88.888671875 l 1
 500 -88.888671875 l 1
 500 -33.3330078125 l 1
 500 22.22265625 l 1
 444.443359375 22.22265625 l 1
 388.888671875 22.22265625 l 1
 388.888671875 77.77734375 l 1
 388.888671875 133.333007812 l 1
 333.333984375 133.333007812 l 1
 277.77734375 133.333007812 l 1
 277.77734375 -33.3330078125 l 1
 277.77734375 -200 l 1
 222.22265625 -200 l 1
 166.666015625 -200 l 1
 166.666015625 300 l 1
611.111328125 633.333007812 m 1
 611.111328125 688.888671875 l 1
 444.443359375 688.888671875 l 1
 277.77734375 688.888671875 l 1
 277.77734375 522.22265625 l 1
 277.77734375 355.555664062 l 1
 444.443359375 355.555664062 l 1
 611.111328125 355.555664062 l 1
 611.111328125 411.111328125 l 1
 611.111328125 466.666992188 l 1
 666.666015625 466.666992188 l 1
 722.22265625 466.666992188 l 1
 722.22265625 522.22265625 l 1
 722.22265625 577.77734375 l 1
 666.666015625 577.77734375 l 1
 611.111328125 577.77734375 l 1
 611.111328125 633.333007812 l 1
EndSplineSet
EndChar

StartChar: S
Encoding: 83 83 18
Width: 1111
Flags: H
LayerCount: 2
Back
Fore
SplineSet
277.77734375 744.444335938 m 1
 277.77734375 800 l 1
 500 800 l 1
 722.22265625 800 l 1
 722.22265625 744.444335938 l 1
 722.22265625 688.888671875 l 1
 777.77734375 688.888671875 l 1
 833.333984375 688.888671875 l 1
 833.333984375 577.77734375 l 1
 833.333984375 466.666992188 l 1
 777.77734375 466.666992188 l 1
 722.22265625 466.666992188 l 1
 722.22265625 522.22265625 l 1
 722.22265625 577.77734375 l 1
 666.666015625 577.77734375 l 1
 611.111328125 577.77734375 l 1
 611.111328125 633.333007812 l 1
 611.111328125 688.888671875 l 1
 500 688.888671875 l 1
 388.888671875 688.888671875 l 1
 388.888671875 633.333007812 l 1
 388.888671875 577.77734375 l 1
 333.333984375 577.77734375 l 1
 277.77734375 577.77734375 l 1
 277.77734375 522.22265625 l 1
 277.77734375 466.666992188 l 1
 333.333984375 466.666992188 l 1
 388.888671875 466.666992188 l 1
 388.888671875 411.111328125 l 1
 388.888671875 355.555664062 l 1
 555.5546875 355.555664062 l 1
 722.22265625 355.555664062 l 1
 722.22265625 300 l 1
 722.22265625 244.444335938 l 1
 777.77734375 244.444335938 l 1
 833.333984375 244.444335938 l 1
 833.333984375 77.77734375 l 1
 833.333984375 -88.888671875 l 1
 777.77734375 -88.888671875 l 1
 722.22265625 -88.888671875 l 1
 722.22265625 -144.444335938 l 1
 722.22265625 -200 l 1
 500 -200 l 1
 277.77734375 -200 l 1
 277.77734375 -144.444335938 l 1
 277.77734375 -88.888671875 l 1
 222.22265625 -88.888671875 l 1
 166.666015625 -88.888671875 l 1
 166.666015625 22.22265625 l 1
 166.666015625 133.333007812 l 1
 222.22265625 133.333007812 l 1
 277.77734375 133.333007812 l 1
 277.77734375 77.77734375 l 1
 277.77734375 22.22265625 l 1
 333.333984375 22.22265625 l 1
 388.888671875 22.22265625 l 1
 388.888671875 -33.3330078125 l 1
 388.888671875 -88.888671875 l 1
 500 -88.888671875 l 1
 611.111328125 -88.888671875 l 1
 611.111328125 -33.3330078125 l 1
 611.111328125 22.22265625 l 1
 666.666015625 22.22265625 l 1
 722.22265625 22.22265625 l 1
 722.22265625 77.77734375 l 1
 722.22265625 133.333007812 l 1
 666.666015625 133.333007812 l 1
 611.111328125 133.333007812 l 1
 611.111328125 188.888671875 l 1
 611.111328125 244.444335938 l 1
 444.443359375 244.444335938 l 1
 277.77734375 244.444335938 l 1
 277.77734375 300 l 1
 277.77734375 355.555664062 l 1
 222.22265625 355.555664062 l 1
 166.666015625 355.555664062 l 1
 166.666015625 522.22265625 l 1
 166.666015625 688.888671875 l 1
 222.22265625 688.888671875 l 1
 277.77734375 688.888671875 l 1
 277.77734375 744.444335938 l 1
EndSplineSet
EndChar

StartChar: T
Encoding: 84 84 19
Width: 1111
Flags: H
LayerCount: 2
Back
Fore
SplineSet
222.22265625 744.444335938 m 1
 222.22265625 800 l 1
 500 800 l 1
 777.77734375 800 l 1
 777.77734375 744.444335938 l 1
 777.77734375 688.888671875 l 1
 666.666015625 688.888671875 l 1
 555.5546875 688.888671875 l 1
 555.5546875 244.444335938 l 1
 555.5546875 -200 l 1
 500 -200 l 1
 444.443359375 -200 l 1
 444.443359375 244.444335938 l 1
 444.443359375 688.888671875 l 1
 333.333984375 688.888671875 l 1
 222.22265625 688.888671875 l 1
 222.22265625 744.444335938 l 1
EndSplineSet
EndChar

StartChar: U
Encoding: 85 85 20
Width: 1111
Flags: H
LayerCount: 2
Back
Fore
SplineSet
166.666015625 355.555664062 m 1
 166.666015625 800 l 1
 222.22265625 800 l 1
 277.77734375 800 l 1
 277.77734375 411.111328125 l 1
 277.77734375 22.22265625 l 1
 333.333984375 22.22265625 l 1
 388.888671875 22.22265625 l 1
 388.888671875 -33.3330078125 l 1
 388.888671875 -88.888671875 l 1
 500 -88.888671875 l 1
 611.111328125 -88.888671875 l 1
 611.111328125 -33.3330078125 l 1
 611.111328125 22.22265625 l 1
 666.666015625 22.22265625 l 1
 722.22265625 22.22265625 l 1
 722.22265625 411.111328125 l 1
 722.22265625 800 l 1
 777.77734375 800 l 1
 833.333984375 800 l 1
 833.333984375 355.555664062 l 1
 833.333984375 -88.888671875 l 1
 777.77734375 -88.888671875 l 1
 722.22265625 -88.888671875 l 1
 722.22265625 -144.444335938 l 1
 722.22265625 -200 l 1
 500 -200 l 1
 277.77734375 -200 l 1
 277.77734375 -144.444335938 l 1
 277.77734375 -88.888671875 l 1
 222.22265625 -88.888671875 l 1
 166.666015625 -88.888671875 l 1
 166.666015625 355.555664062 l 1
EndSplineSet
EndChar

StartChar: V
Encoding: 86 86 21
Width: 1111
Flags: H
LayerCount: 2
Back
Fore
SplineSet
166.666015625 522.22265625 m 1
 166.666015625 800 l 1
 222.22265625 800 l 1
 277.77734375 800 l 1
 277.77734375 522.22265625 l 1
 277.77734375 244.444335938 l 1
 333.333984375 244.444335938 l 1
 388.888671875 244.444335938 l 1
 388.888671875 133.333007812 l 1
 388.888671875 22.22265625 l 1
 500 22.22265625 l 1
 611.111328125 22.22265625 l 1
 611.111328125 133.333007812 l 1
 611.111328125 244.444335938 l 1
 666.666015625 244.444335938 l 1
 722.22265625 244.444335938 l 1
 722.22265625 522.22265625 l 1
 722.22265625 800 l 1
 777.77734375 800 l 1
 833.333984375 800 l 1
 833.333984375 522.22265625 l 1
 833.333984375 244.444335938 l 1
 777.77734375 244.444335938 l 1
 722.22265625 244.444335938 l 1
 722.22265625 133.333007812 l 1
 722.22265625 22.22265625 l 1
 666.666015625 22.22265625 l 1
 611.111328125 22.22265625 l 1
 611.111328125 -88.888671875 l 1
 611.111328125 -200 l 1
 500 -200 l 1
 388.888671875 -200 l 1
 388.888671875 -88.888671875 l 1
 388.888671875 22.22265625 l 1
 333.333984375 22.22265625 l 1
 277.77734375 22.22265625 l 1
 277.77734375 133.333007812 l 1
 277.77734375 244.444335938 l 1
 222.22265625 244.444335938 l 1
 166.666015625 244.444335938 l 1
 166.666015625 522.22265625 l 1
EndSplineSet
EndChar

StartChar: W
Encoding: 87 87 22
Width: 1111
Flags: H
LayerCount: 2
Back
Fore
SplineSet
166.666015625 355.555664062 m 1
 166.666015625 800 l 1
 222.22265625 800 l 1
 277.77734375 800 l 1
 277.77734375 355.555664062 l 1
 277.77734375 -88.888671875 l 1
 333.333984375 -88.888671875 l 1
 388.888671875 -88.888671875 l 1
 388.888671875 22.22265625 l 1
 388.888671875 133.333007812 l 1
 500 133.333007812 l 1
 611.111328125 133.333007812 l 1
 611.111328125 22.22265625 l 1
 611.111328125 -88.888671875 l 1
 666.666015625 -88.888671875 l 1
 722.22265625 -88.888671875 l 1
 722.22265625 355.555664062 l 1
 722.22265625 800 l 1
 777.77734375 800 l 1
 833.333984375 800 l 1
 833.333984375 355.555664062 l 1
 833.333984375 -88.888671875 l 1
 777.77734375 -88.888671875 l 1
 722.22265625 -88.888671875 l 1
 722.22265625 -144.444335938 l 1
 722.22265625 -200 l 1
 666.666015625 -200 l 1
 611.111328125 -200 l 1
 611.111328125 -144.444335938 l 1
 611.111328125 -88.888671875 l 1
 500 -88.888671875 l 1
 388.888671875 -88.888671875 l 1
 388.888671875 -144.444335938 l 1
 388.888671875 -200 l 1
 333.333984375 -200 l 1
 277.77734375 -200 l 1
 277.77734375 -144.444335938 l 1
 277.77734375 -88.888671875 l 1
 222.22265625 -88.888671875 l 1
 166.666015625 -88.888671875 l 1
 166.666015625 355.555664062 l 1
EndSplineSet
EndChar

StartChar: X
Encoding: 88 88 23
Width: 1111
Flags: H
LayerCount: 2
Back
Fore
SplineSet
166.666015625 688.888671875 m 1
 166.666015625 800 l 1
 222.22265625 800 l 1
 277.77734375 800 l 1
 277.77734375 688.888671875 l 1
 277.77734375 577.77734375 l 1
 333.333984375 577.77734375 l 1
 388.888671875 577.77734375 l 1
 388.888671875 466.666992188 l 1
 388.888671875 355.555664062 l 1
 500 355.555664062 l 1
 611.111328125 355.555664062 l 1
 611.111328125 466.666992188 l 1
 611.111328125 577.77734375 l 1
 666.666015625 577.77734375 l 1
 722.22265625 577.77734375 l 1
 722.22265625 688.888671875 l 1
 722.22265625 800 l 1
 777.77734375 800 l 1
 833.333984375 800 l 1
 833.333984375 688.888671875 l 1
 833.333984375 577.77734375 l 1
 777.77734375 577.77734375 l 1
 722.22265625 577.77734375 l 1
 722.22265625 466.666992188 l 1
 722.22265625 355.555664062 l 1
 666.666015625 355.555664062 l 1
 611.111328125 355.555664062 l 1
 611.111328125 300 l 1
 611.111328125 244.444335938 l 1
 666.666015625 244.444335938 l 1
 722.22265625 244.444335938 l 1
 722.22265625 133.333007812 l 1
 722.22265625 22.22265625 l 1
 777.77734375 22.22265625 l 1
 833.333984375 22.22265625 l 1
 833.333984375 -88.888671875 l 1
 833.333984375 -200 l 1
 777.77734375 -200 l 1
 722.22265625 -200 l 1
 722.22265625 -88.888671875 l 1
 722.22265625 22.22265625 l 1
 666.666015625 22.22265625 l 1
 611.111328125 22.22265625 l 1
 611.111328125 133.333007812 l 1
 611.111328125 244.444335938 l 1
 500 244.444335938 l 1
 388.888671875 244.444335938 l 1
 388.888671875 133.333007812 l 1
 388.888671875 22.22265625 l 1
 333.333984375 22.22265625 l 1
 277.77734375 22.22265625 l 1
 277.77734375 -88.888671875 l 1
 277.77734375 -200 l 1
 222.22265625 -200 l 1
 166.666015625 -200 l 1
 166.666015625 -88.888671875 l 1
 166.666015625 22.22265625 l 1
 222.22265625 22.22265625 l 1
 277.77734375 22.22265625 l 1
 277.77734375 133.333007812 l 1
 277.77734375 244.444335938 l 1
 333.333984375 244.444335938 l 1
 388.888671875 244.444335938 l 1
 388.888671875 300 l 1
 388.888671875 355.555664062 l 1
 333.333984375 355.555664062 l 1
 277.77734375 355.555664062 l 1
 277.77734375 466.666992188 l 1
 277.77734375 577.77734375 l 1
 222.22265625 577.77734375 l 1
 166.666015625 577.77734375 l 1
 166.666015625 688.888671875 l 1
EndSplineSet
EndChar

StartChar: Y
Encoding: 89 89 24
Width: 1111
Flags: H
LayerCount: 2
Back
Fore
SplineSet
222.22265625 688.888671875 m 1
 222.22265625 800 l 1
 277.77734375 800 l 1
 333.333984375 800 l 1
 333.333984375 688.888671875 l 1
 333.333984375 577.77734375 l 1
 388.888671875 577.77734375 l 1
 444.443359375 577.77734375 l 1
 444.443359375 466.666992188 l 1
 444.443359375 355.555664062 l 1
 500 355.555664062 l 1
 555.5546875 355.555664062 l 1
 555.5546875 466.666992188 l 1
 555.5546875 577.77734375 l 1
 611.111328125 577.77734375 l 1
 666.666015625 577.77734375 l 1
 666.666015625 688.888671875 l 1
 666.666015625 800 l 1
 722.22265625 800 l 1
 777.77734375 800 l 1
 777.77734375 688.888671875 l 1
 777.77734375 577.77734375 l 1
 722.22265625 577.77734375 l 1
 666.666015625 577.77734375 l 1
 666.666015625 466.666992188 l 1
 666.666015625 355.555664062 l 1
 611.111328125 355.555664062 l 1
 555.5546875 355.555664062 l 1
 555.5546875 77.77734375 l 1
 555.5546875 -200 l 1
 500 -200 l 1
 444.443359375 -200 l 1
 444.443359375 77.77734375 l 1
 444.443359375 355.555664062 l 1
 388.888671875 355.555664062 l 1
 333.333984375 355.555664062 l 1
 333.333984375 466.666992188 l 1
 333.333984375 577.77734375 l 1
 277.77734375 577.77734375 l 1
 222.22265625 577.77734375 l 1
 222.22265625 688.888671875 l 1
EndSplineSet
EndChar

StartChar: Z
Encoding: 90 90 25
Width: 1111
Flags: H
LayerCount: 2
Back
Fore
SplineSet
166.666015625 744.444335938 m 1
 166.666015625 800 l 1
 500 800 l 1
 833.333984375 800 l 1
 833.333984375 633.333007812 l 1
 833.333984375 466.666992188 l 1
 777.77734375 466.666992188 l 1
 722.22265625 466.666992188 l 1
 722.22265625 411.111328125 l 1
 722.22265625 355.555664062 l 1
 666.666015625 355.555664062 l 1
 611.111328125 355.555664062 l 1
 611.111328125 300 l 1
 611.111328125 244.444335938 l 1
 555.5546875 244.444335938 l 1
 500 244.444335938 l 1
 500 188.888671875 l 1
 500 133.333007812 l 1
 444.443359375 133.333007812 l 1
 388.888671875 133.333007812 l 1
 388.888671875 77.77734375 l 1
 388.888671875 22.22265625 l 1
 333.333984375 22.22265625 l 1
 277.77734375 22.22265625 l 1
 277.77734375 -33.3330078125 l 1
 277.77734375 -88.888671875 l 1
 555.5546875 -88.888671875 l 1
 833.333984375 -88.888671875 l 1
 833.333984375 -144.444335938 l 1
 833.333984375 -200 l 1
 500 -200 l 1
 166.666015625 -200 l 1
 166.666015625 -33.3330078125 l 1
 166.666015625 133.333007812 l 1
 222.22265625 133.333007812 l 1
 277.77734375 133.333007812 l 1
 277.77734375 188.888671875 l 1
 277.77734375 244.444335938 l 1
 333.333984375 244.444335938 l 1
 388.888671875 244.444335938 l 1
 388.888671875 300 l 1
 388.888671875 355.555664062 l 1
 444.443359375 355.555664062 l 1
 500 355.555664062 l 1
 500 411.111328125 l 1
 500 466.666992188 l 1
 555.5546875 466.666992188 l 1
 611.111328125 466.666992188 l 1
 611.111328125 522.22265625 l 1
 611.111328125 577.77734375 l 1
 666.666015625 577.77734375 l 1
 722.22265625 577.77734375 l 1
 722.22265625 633.333007812 l 1
 722.22265625 688.888671875 l 1
 444.443359375 688.888671875 l 1
 166.666015625 688.888671875 l 1
 166.666015625 744.444335938 l 1
EndSplineSet
EndChar

StartChar: zero
Encoding: 48 48 26
Width: 1111
Flags: H
LayerCount: 2
Back
Fore
SplineSet
500 300 m 1
 500 355.555664062 l 1
 555.5546875 355.555664062 l 1
 611.111328125 355.555664062 l 1
 611.111328125 300 l 1
 611.111328125 244.444335938 l 1
 555.5546875 244.444335938 l 1
 500 244.444335938 l 1
 500 188.888671875 l 1
 500 133.333007812 l 1
 444.443359375 133.333007812 l 1
 388.888671875 133.333007812 l 1
 388.888671875 188.888671875 l 1
 388.888671875 244.444335938 l 1
 444.443359375 244.444335938 l 1
 500 244.444335938 l 1
 500 300 l 1
277.77734375 744.444335938 m 1
 277.77734375 800 l 1
 500 800 l 1
 722.22265625 800 l 1
 722.22265625 744.444335938 l 1
 722.22265625 688.888671875 l 1
 777.77734375 688.888671875 l 1
 833.333984375 688.888671875 l 1
 833.333984375 300 l 1
 833.333984375 -88.888671875 l 1
 777.77734375 -88.888671875 l 1
 722.22265625 -88.888671875 l 1
 722.22265625 -144.444335938 l 1
 722.22265625 -200 l 1
 500 -200 l 1
 277.77734375 -200 l 1
 277.77734375 -144.444335938 l 1
 277.77734375 -88.888671875 l 1
 222.22265625 -88.888671875 l 1
 166.666015625 -88.888671875 l 1
 166.666015625 300 l 1
 166.666015625 688.888671875 l 1
 222.22265625 688.888671875 l 1
 277.77734375 688.888671875 l 1
 277.77734375 744.444335938 l 1
611.111328125 633.333007812 m 1
 611.111328125 688.888671875 l 1
 500 688.888671875 l 1
 388.888671875 688.888671875 l 1
 388.888671875 633.333007812 l 1
 388.888671875 577.77734375 l 1
 333.333984375 577.77734375 l 1
 277.77734375 577.77734375 l 1
 277.77734375 355.555664062 l 1
 277.77734375 133.333007812 l 1
 333.333984375 133.333007812 l 1
 388.888671875 133.333007812 l 1
 388.888671875 22.22265625 l 1
 388.888671875 -88.888671875 l 1
 500 -88.888671875 l 1
 611.111328125 -88.888671875 l 1
 611.111328125 -33.3330078125 l 1
 611.111328125 22.22265625 l 1
 666.666015625 22.22265625 l 1
 722.22265625 22.22265625 l 1
 722.22265625 188.888671875 l 1
 722.22265625 355.555664062 l 1
 666.666015625 355.555664062 l 1
 611.111328125 355.555664062 l 1
 611.111328125 411.111328125 l 1
 611.111328125 466.666992188 l 1
 666.666015625 466.666992188 l 1
 722.22265625 466.666992188 l 1
 722.22265625 522.22265625 l 1
 722.22265625 577.77734375 l 1
 666.666015625 577.77734375 l 1
 611.111328125 577.77734375 l 1
 611.111328125 633.333007812 l 1
EndSplineSet
EndChar

StartChar: one
Encoding: 49 49 27
Width: 1111
Flags: H
LayerCount: 2
Back
Fore
SplineSet
500 744.444335938 m 1
 500 800 l 1
 555.5546875 800 l 1
 611.111328125 800 l 1
 611.111328125 355.555664062 l 1
 611.111328125 -88.888671875 l 1
 666.666015625 -88.888671875 l 1
 722.22265625 -88.888671875 l 1
 722.22265625 -144.444335938 l 1
 722.22265625 -200 l 1
 555.5546875 -200 l 1
 388.888671875 -200 l 1
 388.888671875 -144.444335938 l 1
 388.888671875 -88.888671875 l 1
 444.443359375 -88.888671875 l 1
 500 -88.888671875 l 1
 500 188.888671875 l 1
 500 466.666992188 l 1
 388.888671875 466.666992188 l 1
 277.77734375 466.666992188 l 1
 277.77734375 522.22265625 l 1
 277.77734375 577.77734375 l 1
 333.333984375 577.77734375 l 1
 388.888671875 577.77734375 l 1
 388.888671875 633.333007812 l 1
 388.888671875 688.888671875 l 1
 444.443359375 688.888671875 l 1
 500 688.888671875 l 1
 500 744.444335938 l 1
EndSplineSet
EndChar

StartChar: two
Encoding: 50 50 28
Width: 1111
Flags: H
LayerCount: 2
Back
Fore
SplineSet
277.77734375 744.444335938 m 1
 277.77734375 800 l 1
 500 800 l 1
 722.22265625 800 l 1
 722.22265625 744.444335938 l 1
 722.22265625 688.888671875 l 1
 777.77734375 688.888671875 l 1
 833.333984375 688.888671875 l 1
 833.333984375 522.22265625 l 1
 833.333984375 355.555664062 l 1
 777.77734375 355.555664062 l 1
 722.22265625 355.555664062 l 1
 722.22265625 300 l 1
 722.22265625 244.444335938 l 1
 666.666015625 244.444335938 l 1
 611.111328125 244.444335938 l 1
 611.111328125 188.888671875 l 1
 611.111328125 133.333007812 l 1
 555.5546875 133.333007812 l 1
 500 133.333007812 l 1
 500 77.77734375 l 1
 500 22.22265625 l 1
 444.443359375 22.22265625 l 1
 388.888671875 22.22265625 l 1
 388.888671875 -33.3330078125 l 1
 388.888671875 -88.888671875 l 1
 611.111328125 -88.888671875 l 1
 833.333984375 -88.888671875 l 1
 833.333984375 -144.444335938 l 1
 833.333984375 -200 l 1
 500 -200 l 1
 166.666015625 -200 l 1
 166.666015625 -88.888671875 l 1
 166.666015625 22.22265625 l 1
 222.22265625 22.22265625 l 1
 277.77734375 22.22265625 l 1
 277.77734375 77.77734375 l 1
 277.77734375 133.333007812 l 1
 333.333984375 133.333007812 l 1
 388.888671875 133.333007812 l 1
 388.888671875 188.888671875 l 1
 388.888671875 244.444335938 l 1
 444.443359375 244.444335938 l 1
 500 244.444335938 l 1
 500 300 l 1
 500 355.555664062 l 1
 555.5546875 355.555664062 l 1
 611.111328125 355.555664062 l 1
 611.111328125 411.111328125 l 1
 611.111328125 466.666992188 l 1
 666.666015625 466.666992188 l 1
 722.22265625 466.666992188 l 1
 722.22265625 522.22265625 l 1
 722.22265625 577.77734375 l 1
 666.666015625 577.77734375 l 1
 611.111328125 577.77734375 l 1
 611.111328125 633.333007812 l 1
 611.111328125 688.888671875 l 1
 500 688.888671875 l 1
 388.888671875 688.888671875 l 1
 388.888671875 633.333007812 l 1
 388.888671875 577.77734375 l 1
 277.77734375 577.77734375 l 1
 166.666015625 577.77734375 l 1
 166.666015625 633.333007812 l 1
 166.666015625 688.888671875 l 1
 222.22265625 688.888671875 l 1
 277.77734375 688.888671875 l 1
 277.77734375 744.444335938 l 1
EndSplineSet
EndChar

StartChar: three
Encoding: 51 51 29
Width: 1111
Flags: H
LayerCount: 2
Back
Fore
SplineSet
277.77734375 744.444335938 m 1
 277.77734375 800 l 1
 500 800 l 1
 722.22265625 800 l 1
 722.22265625 744.444335938 l 1
 722.22265625 688.888671875 l 1
 777.77734375 688.888671875 l 1
 833.333984375 688.888671875 l 1
 833.333984375 522.22265625 l 1
 833.333984375 355.555664062 l 1
 777.77734375 355.555664062 l 1
 722.22265625 355.555664062 l 1
 722.22265625 300 l 1
 722.22265625 244.444335938 l 1
 777.77734375 244.444335938 l 1
 833.333984375 244.444335938 l 1
 833.333984375 77.77734375 l 1
 833.333984375 -88.888671875 l 1
 777.77734375 -88.888671875 l 1
 722.22265625 -88.888671875 l 1
 722.22265625 -144.444335938 l 1
 722.22265625 -200 l 1
 500 -200 l 1
 277.77734375 -200 l 1
 277.77734375 -144.444335938 l 1
 277.77734375 -88.888671875 l 1
 222.22265625 -88.888671875 l 1
 166.666015625 -88.888671875 l 1
 166.666015625 -33.3330078125 l 1
 166.666015625 22.22265625 l 1
 277.77734375 22.22265625 l 1
 388.888671875 22.22265625 l 1
 388.888671875 -33.3330078125 l 1
 388.888671875 -88.888671875 l 1
 500 -88.888671875 l 1
 611.111328125 -88.888671875 l 1
 611.111328125 -33.3330078125 l 1
 611.111328125 22.22265625 l 1
 666.666015625 22.22265625 l 1
 722.22265625 22.22265625 l 1
 722.22265625 77.77734375 l 1
 722.22265625 133.333007812 l 1
 666.666015625 133.333007812 l 1
 611.111328125 133.333007812 l 1
 611.111328125 188.888671875 l 1
 611.111328125 244.444335938 l 1
 500 244.444335938 l 1
 388.888671875 244.444335938 l 1
 388.888671875 300 l 1
 388.888671875 355.555664062 l 1
 500 355.555664062 l 1
 611.111328125 355.555664062 l 1
 611.111328125 411.111328125 l 1
 611.111328125 466.666992188 l 1
 666.666015625 466.666992188 l 1
 722.22265625 466.666992188 l 1
 722.22265625 522.22265625 l 1
 722.22265625 577.77734375 l 1
 666.666015625 577.77734375 l 1
 611.111328125 577.77734375 l 1
 611.111328125 633.333007812 l 1
 611.111328125 688.888671875 l 1
 500 688.888671875 l 1
 388.888671875 688.888671875 l 1
 388.888671875 633.333007812 l 1
 388.888671875 577.77734375 l 1
 277.77734375 577.77734375 l 1
 166.666015625 577.77734375 l 1
 166.666015625 633.333007812 l 1
 166.666015625 688.888671875 l 1
 222.22265625 688.888671875 l 1
 277.77734375 688.888671875 l 1
 277.77734375 744.444335938 l 1
EndSplineSet
EndChar

StartChar: four
Encoding: 52 52 30
Width: 1111
Flags: H
LayerCount: 2
Back
Fore
SplineSet
388.888671875 688.888671875 m 1
 388.888671875 800 l 1
 444.443359375 800 l 1
 500 800 l 1
 500 688.888671875 l 1
 500 577.77734375 l 1
 444.443359375 577.77734375 l 1
 388.888671875 577.77734375 l 1
 388.888671875 466.666992188 l 1
 388.888671875 355.555664062 l 1
 333.333984375 355.555664062 l 1
 277.77734375 355.555664062 l 1
 277.77734375 300 l 1
 277.77734375 244.444335938 l 1
 444.443359375 244.444335938 l 1
 611.111328125 244.444335938 l 1
 611.111328125 522.22265625 l 1
 611.111328125 800 l 1
 666.666015625 800 l 1
 722.22265625 800 l 1
 722.22265625 522.22265625 l 1
 722.22265625 244.444335938 l 1
 777.77734375 244.444335938 l 1
 833.333984375 244.444335938 l 1
 833.333984375 188.888671875 l 1
 833.333984375 133.333007812 l 1
 777.77734375 133.333007812 l 1
 722.22265625 133.333007812 l 1
 722.22265625 -33.3330078125 l 1
 722.22265625 -200 l 1
 666.666015625 -200 l 1
 611.111328125 -200 l 1
 611.111328125 -33.3330078125 l 1
 611.111328125 133.333007812 l 1
 388.888671875 133.333007812 l 1
 166.666015625 133.333007812 l 1
 166.666015625 244.444335938 l 1
 166.666015625 355.555664062 l 1
 222.22265625 355.555664062 l 1
 277.77734375 355.555664062 l 1
 277.77734375 466.666992188 l 1
 277.77734375 577.77734375 l 1
 333.333984375 577.77734375 l 1
 388.888671875 577.77734375 l 1
 388.888671875 688.888671875 l 1
EndSplineSet
EndChar

StartChar: five
Encoding: 53 53 31
Width: 1111
Flags: H
LayerCount: 2
Back
Fore
SplineSet
166.666015625 466.666992188 m 1
 166.666015625 800 l 1
 500 800 l 1
 833.333984375 800 l 1
 833.333984375 744.444335938 l 1
 833.333984375 688.888671875 l 1
 555.5546875 688.888671875 l 1
 277.77734375 688.888671875 l 1
 277.77734375 577.77734375 l 1
 277.77734375 466.666992188 l 1
 500 466.666992188 l 1
 722.22265625 466.666992188 l 1
 722.22265625 411.111328125 l 1
 722.22265625 355.555664062 l 1
 777.77734375 355.555664062 l 1
 833.333984375 355.555664062 l 1
 833.333984375 133.333007812 l 1
 833.333984375 -88.888671875 l 1
 777.77734375 -88.888671875 l 1
 722.22265625 -88.888671875 l 1
 722.22265625 -144.444335938 l 1
 722.22265625 -200 l 1
 500 -200 l 1
 277.77734375 -200 l 1
 277.77734375 -144.444335938 l 1
 277.77734375 -88.888671875 l 1
 222.22265625 -88.888671875 l 1
 166.666015625 -88.888671875 l 1
 166.666015625 -33.3330078125 l 1
 166.666015625 22.22265625 l 1
 277.77734375 22.22265625 l 1
 388.888671875 22.22265625 l 1
 388.888671875 -33.3330078125 l 1
 388.888671875 -88.888671875 l 1
 500 -88.888671875 l 1
 611.111328125 -88.888671875 l 1
 611.111328125 -33.3330078125 l 1
 611.111328125 22.22265625 l 1
 666.666015625 22.22265625 l 1
 722.22265625 22.22265625 l 1
 722.22265625 133.333007812 l 1
 722.22265625 244.444335938 l 1
 666.666015625 244.444335938 l 1
 611.111328125 244.444335938 l 1
 611.111328125 300 l 1
 611.111328125 355.555664062 l 1
 500 355.555664062 l 1
 388.888671875 355.555664062 l 1
 388.888671875 300 l 1
 388.888671875 244.444335938 l 1
 333.333984375 244.444335938 l 1
 277.77734375 244.444335938 l 1
 277.77734375 188.888671875 l 1
 277.77734375 133.333007812 l 1
 222.22265625 133.333007812 l 1
 166.666015625 133.333007812 l 1
 166.666015625 466.666992188 l 1
EndSplineSet
EndChar

StartChar: six
Encoding: 54 54 32
Width: 1111
Flags: H
LayerCount: 2
Back
Fore
SplineSet
277.77734375 744.444335938 m 1
 277.77734375 800 l 1
 500 800 l 1
 722.22265625 800 l 1
 722.22265625 744.444335938 l 1
 722.22265625 688.888671875 l 1
 777.77734375 688.888671875 l 1
 833.333984375 688.888671875 l 1
 833.333984375 633.333007812 l 1
 833.333984375 577.77734375 l 1
 722.22265625 577.77734375 l 1
 611.111328125 577.77734375 l 1
 611.111328125 633.333007812 l 1
 611.111328125 688.888671875 l 1
 500 688.888671875 l 1
 388.888671875 688.888671875 l 1
 388.888671875 633.333007812 l 1
 388.888671875 577.77734375 l 1
 333.333984375 577.77734375 l 1
 277.77734375 577.77734375 l 1
 277.77734375 466.666992188 l 1
 277.77734375 355.555664062 l 1
 500 355.555664062 l 1
 722.22265625 355.555664062 l 1
 722.22265625 300 l 1
 722.22265625 244.444335938 l 1
 777.77734375 244.444335938 l 1
 833.333984375 244.444335938 l 1
 833.333984375 77.77734375 l 1
 833.333984375 -88.888671875 l 1
 777.77734375 -88.888671875 l 1
 722.22265625 -88.888671875 l 1
 722.22265625 -144.444335938 l 1
 722.22265625 -200 l 1
 500 -200 l 1
 277.77734375 -200 l 1
 277.77734375 -144.444335938 l 1
 277.77734375 -88.888671875 l 1
 222.22265625 -88.888671875 l 1
 166.666015625 -88.888671875 l 1
 166.666015625 300 l 1
 166.666015625 688.888671875 l 1
 222.22265625 688.888671875 l 1
 277.77734375 688.888671875 l 1
 277.77734375 744.444335938 l 1
611.111328125 188.888671875 m 1
 611.111328125 244.444335938 l 1
 500 244.444335938 l 1
 388.888671875 244.444335938 l 1
 388.888671875 188.888671875 l 1
 388.888671875 133.333007812 l 1
 333.333984375 133.333007812 l 1
 277.77734375 133.333007812 l 1
 277.77734375 77.77734375 l 1
 277.77734375 22.22265625 l 1
 333.333984375 22.22265625 l 1
 388.888671875 22.22265625 l 1
 388.888671875 -33.3330078125 l 1
 388.888671875 -88.888671875 l 1
 500 -88.888671875 l 1
 611.111328125 -88.888671875 l 1
 611.111328125 -33.3330078125 l 1
 611.111328125 22.22265625 l 1
 666.666015625 22.22265625 l 1
 722.22265625 22.22265625 l 1
 722.22265625 77.77734375 l 1
 722.22265625 133.333007812 l 1
 666.666015625 133.333007812 l 1
 611.111328125 133.333007812 l 1
 611.111328125 188.888671875 l 1
EndSplineSet
EndChar

StartChar: seven
Encoding: 55 55 33
Width: 1111
Flags: H
LayerCount: 2
Back
Fore
SplineSet
166.666015625 744.444335938 m 1
 166.666015625 800 l 1
 500 800 l 1
 833.333984375 800 l 1
 833.333984375 577.77734375 l 1
 833.333984375 355.555664062 l 1
 777.77734375 355.555664062 l 1
 722.22265625 355.555664062 l 1
 722.22265625 300 l 1
 722.22265625 244.444335938 l 1
 666.666015625 244.444335938 l 1
 611.111328125 244.444335938 l 1
 611.111328125 188.888671875 l 1
 611.111328125 133.333007812 l 1
 555.5546875 133.333007812 l 1
 500 133.333007812 l 1
 500 -33.3330078125 l 1
 500 -200 l 1
 444.443359375 -200 l 1
 388.888671875 -200 l 1
 388.888671875 22.22265625 l 1
 388.888671875 244.444335938 l 1
 444.443359375 244.444335938 l 1
 500 244.444335938 l 1
 500 300 l 1
 500 355.555664062 l 1
 555.5546875 355.555664062 l 1
 611.111328125 355.555664062 l 1
 611.111328125 411.111328125 l 1
 611.111328125 466.666992188 l 1
 666.666015625 466.666992188 l 1
 722.22265625 466.666992188 l 1
 722.22265625 577.77734375 l 1
 722.22265625 688.888671875 l 1
 444.443359375 688.888671875 l 1
 166.666015625 688.888671875 l 1
 166.666015625 744.444335938 l 1
EndSplineSet
EndChar

StartChar: eight
Encoding: 56 56 34
Width: 1111
Flags: H
LayerCount: 2
Back
Fore
SplineSet
277.77734375 744.444335938 m 1
 277.77734375 800 l 1
 500 800 l 1
 722.22265625 800 l 1
 722.22265625 744.444335938 l 1
 722.22265625 688.888671875 l 1
 777.77734375 688.888671875 l 1
 833.333984375 688.888671875 l 1
 833.333984375 522.22265625 l 1
 833.333984375 355.555664062 l 1
 777.77734375 355.555664062 l 1
 722.22265625 355.555664062 l 1
 722.22265625 300 l 1
 722.22265625 244.444335938 l 1
 777.77734375 244.444335938 l 1
 833.333984375 244.444335938 l 1
 833.333984375 77.77734375 l 1
 833.333984375 -88.888671875 l 1
 777.77734375 -88.888671875 l 1
 722.22265625 -88.888671875 l 1
 722.22265625 -144.444335938 l 1
 722.22265625 -200 l 1
 500 -200 l 1
 277.77734375 -200 l 1
 277.77734375 -144.444335938 l 1
 277.77734375 -88.888671875 l 1
 222.22265625 -88.888671875 l 1
 166.666015625 -88.888671875 l 1
 166.666015625 77.77734375 l 1
 166.666015625 244.444335938 l 1
 222.22265625 244.444335938 l 1
 277.77734375 244.444335938 l 1
 277.77734375 300 l 1
 277.77734375 355.555664062 l 1
 222.22265625 355.555664062 l 1
 166.666015625 355.555664062 l 1
 166.666015625 522.22265625 l 1
 166.666015625 688.888671875 l 1
 222.22265625 688.888671875 l 1
 277.77734375 688.888671875 l 1
 277.77734375 744.444335938 l 1
611.111328125 633.333007812 m 1
 611.111328125 688.888671875 l 1
 500 688.888671875 l 1
 388.888671875 688.888671875 l 1
 388.888671875 633.333007812 l 1
 388.888671875 577.77734375 l 1
 333.333984375 577.77734375 l 1
 277.77734375 577.77734375 l 1
 277.77734375 522.22265625 l 1
 277.77734375 466.666992188 l 1
 333.333984375 466.666992188 l 1
 388.888671875 466.666992188 l 1
 388.888671875 411.111328125 l 1
 388.888671875 355.555664062 l 1
 500 355.555664062 l 1
 611.111328125 355.555664062 l 1
 611.111328125 411.111328125 l 1
 611.111328125 466.666992188 l 1
 666.666015625 466.666992188 l 1
 722.22265625 466.666992188 l 1
 722.22265625 522.22265625 l 1
 722.22265625 577.77734375 l 1
 666.666015625 577.77734375 l 1
 611.111328125 577.77734375 l 1
 611.111328125 633.333007812 l 1
611.111328125 188.888671875 m 1
 611.111328125 244.444335938 l 1
 500 244.444335938 l 1
 388.888671875 244.444335938 l 1
 388.888671875 188.888671875 l 1
 388.888671875 133.333007812 l 1
 333.333984375 133.333007812 l 1
 277.77734375 133.333007812 l 1
 277.77734375 77.77734375 l 1
 277.77734375 22.22265625 l 1
 333.333984375 22.22265625 l 1
 388.888671875 22.22265625 l 1
 388.888671875 -33.3330078125 l 1
 388.888671875 -88.888671875 l 1
 500 -88.888671875 l 1
 611.111328125 -88.888671875 l 1
 611.111328125 -33.3330078125 l 1
 611.111328125 22.22265625 l 1
 666.666015625 22.22265625 l 1
 722.22265625 22.22265625 l 1
 722.22265625 77.77734375 l 1
 722.22265625 133.333007812 l 1
 666.666015625 133.333007812 l 1
 611.111328125 133.333007812 l 1
 611.111328125 188.888671875 l 1
EndSplineSet
EndChar

StartChar: nine
Encoding: 57 57 35
Width: 1111
Flags: H
LayerCount: 2
Back
Fore
SplineSet
277.77734375 744.444335938 m 1
 277.77734375 800 l 1
 500 800 l 1
 722.22265625 800 l 1
 722.22265625 744.444335938 l 1
 722.22265625 688.888671875 l 1
 777.77734375 688.888671875 l 1
 833.333984375 688.888671875 l 1
 833.333984375 300 l 1
 833.333984375 -88.888671875 l 1
 777.77734375 -88.888671875 l 1
 722.22265625 -88.888671875 l 1
 722.22265625 -144.444335938 l 1
 722.22265625 -200 l 1
 500 -200 l 1
 277.77734375 -200 l 1
 277.77734375 -144.444335938 l 1
 277.77734375 -88.888671875 l 1
 222.22265625 -88.888671875 l 1
 166.666015625 -88.888671875 l 1
 166.666015625 -33.3330078125 l 1
 166.666015625 22.22265625 l 1
 277.77734375 22.22265625 l 1
 388.888671875 22.22265625 l 1
 388.888671875 -33.3330078125 l 1
 388.888671875 -88.888671875 l 1
 500 -88.888671875 l 1
 611.111328125 -88.888671875 l 1
 611.111328125 -33.3330078125 l 1
 611.111328125 22.22265625 l 1
 666.666015625 22.22265625 l 1
 722.22265625 22.22265625 l 1
 722.22265625 133.333007812 l 1
 722.22265625 244.444335938 l 1
 500 244.444335938 l 1
 277.77734375 244.444335938 l 1
 277.77734375 300 l 1
 277.77734375 355.555664062 l 1
 222.22265625 355.555664062 l 1
 166.666015625 355.555664062 l 1
 166.666015625 522.22265625 l 1
 166.666015625 688.888671875 l 1
 222.22265625 688.888671875 l 1
 277.77734375 688.888671875 l 1
 277.77734375 744.444335938 l 1
611.111328125 633.333007812 m 1
 611.111328125 688.888671875 l 1
 500 688.888671875 l 1
 388.888671875 688.888671875 l 1
 388.888671875 633.333007812 l 1
 388.888671875 577.77734375 l 1
 333.333984375 577.77734375 l 1
 277.77734375 577.77734375 l 1
 277.77734375 522.22265625 l 1
 277.77734375 466.666992188 l 1
 333.333984375 466.666992188 l 1
 388.888671875 466.666992188 l 1
 388.888671875 411.111328125 l 1
 388.888671875 355.555664062 l 1
 500 355.555664062 l 1
 611.111328125 355.555664062 l 1
 611.111328125 411.111328125 l 1
 611.111328125 466.666992188 l 1
 666.666015625 466.666992188 l 1
 722.22265625 466.666992188 l 1
 722.22265625 522.22265625 l 1
 722.22265625 577.77734375 l 1
 666.666015625 577.77734375 l 1
 611.111328125 577.77734375 l 1
 611.111328125 633.333007812 l 1
EndSplineSet
EndChar
